<?xml version="1.0"?>
<svg xmlns:rdf="http://www.w3.org/1999/02/22-rdf-syntax-ns#" xmlns="http://www.w3.org/2000/svg" xmlns:cc="http://creativecommons.org/ns#" xmlns:dc="http://purl.org/dc/elements/1.1/" xmlns:svg="http://www.w3.org/2000/svg" id="svg2" viewBox="0 0 388.61 728.19" version="1.0">
  <defs id="defs4">
    <filter id="filter9291" y="-.30943" width="1.5823" x="-.29113" height="1.6189">
      <feGaussianBlur id="feGaussianBlur9293" stdDeviation="8.3335344"/>
    </filter>
    <filter id="filter9395" y="-.53003" width="1.3202" x="-.16009" height="2.0601">
      <feGaussianBlur id="feGaussianBlur9397" stdDeviation="9.3818826"/>
    </filter>
    <filter id="filter9599" y="-.37318" width="2.0301" x="-.51506" height="1.7464">
      <feGaussianBlur id="feGaussianBlur9601" stdDeviation="6.8586361"/>
    </filter>
    <filter id="filter9755" y="-.30382" width="1.8486" x="-.42432" height="1.6076">
      <feGaussianBlur id="feGaussianBlur9757" stdDeviation="5.8298341"/>
    </filter>
    <filter id="filter9955" y="-.27729" width="1.8425" x="-.42123" height="1.5546">
      <feGaussianBlur id="feGaussianBlur9957" stdDeviation="5.4055959"/>
    </filter>
    <filter id="filter10063" y="-.3895" width="1.6013" x="-.30063" height="1.779">
      <feGaussianBlur id="feGaussianBlur10065" stdDeviation="9.234072"/>
    </filter>
    <filter id="filter10131" y="-.24172" width="1.3317" x="-.16585" height="1.4834">
      <feGaussianBlur id="feGaussianBlur10133" stdDeviation="6.9948291"/>
    </filter>
    <filter id="filter10201" y="-.33027" width="1.4581" x="-.22904" height="1.6605">
      <feGaussianBlur id="feGaussianBlur10203" stdDeviation="7.0835344"/>
    </filter>
    <filter id="filter10403" y="-.35262" width="1.5847" x="-.29236" height="1.7052">
      <feGaussianBlur id="feGaussianBlur10405" stdDeviation="6.9759738"/>
    </filter>
    <filter id="filter10481" y="-.49284" width="1.6413" x="-.32065" height="1.9857">
      <feGaussianBlur id="feGaussianBlur10483" stdDeviation="9.8761298"/>
    </filter>
    <filter id="filter10535" y="-.13485" width="5.9384" x="-2.4692" height="1.2697">
      <feGaussianBlur id="feGaussianBlur10537" stdDeviation="32.322216"/>
    </filter>
    <filter id="filter10733" y="-.37186" width="5.556" x="-2.278" height="1.7437">
      <feGaussianBlur id="feGaussianBlur10735" stdDeviation="20.980382"/>
    </filter>
    <filter id="filter10771" y="-.31116" width="1.8216" x="-.41078" height="1.6223">
      <feGaussianBlur id="feGaussianBlur10773" stdDeviation="23.500335"/>
    </filter>
    <filter id="filter10817" y="-.60438" width="1.5942" x="-.29709" height="2.2088">
      <feGaussianBlur id="feGaussianBlur10819" stdDeviation="28.427628"/>
    </filter>
  </defs>
  <g id="layer1" transform="translate(-170.21 -135.14)">
    <g id="g3312">
      <path id="path4119" stroke="#000" stroke-width="3.7" fill="none" d="m341.87 680.91l214.29 104.28-20 11.43-220-108.57 25.71-7.14z"/>
      <rect id="rect4121" height="592.84" width="26.408" stroke="#000" y="138.06" x="403.31" stroke-width="3.52" fill="#fff"/>
      <path id="path4123" stroke="#000" stroke-width="3.816" fill="none" d="m537.19 795.93l19.72-10.42v23.46l-18.41 9.12-1.31-22.16z"/>
      <path id="path4125" stroke="#000" stroke-width="3.5" fill="none" d="m316.16 688.05v20l222.5 110.36-1.79-21.79-220.71-108.57z"/>
      <path id="path3134" d="m201.43 723.79l214.28 104.29-20 11.43-220-108.58 25.72-7.14z" fill-rule="evenodd" stroke="#000" stroke-width="3.9" fill="#fff"/>
      <path id="path4107" d="m396.74 838.82l19.73-10.43v23.46l-18.41 9.13-1.32-22.16z" fill-rule="evenodd" stroke="#000" stroke-width="4.716" fill="#fff"/>
      <path id="path4109" d="m175.71 730.93v20l222.5 110.36-1.78-21.78-220.72-108.58z" fill-rule="evenodd" stroke="#000" stroke-width="3.8" fill="#fff"/>
      <path id="path4127" d="m370 623.79v-48.57l165.71-74.29-2.85 52.86-162.86 70z" fill-rule="evenodd" stroke="#000" stroke-width="1px" fill="#fff"/>
      <path id="path4129" stroke="#000" stroke-width="3.3" fill="none" d="m380 578.08v15.71l100-45.71v-15.72l-100 45.72z"/>
      <path id="path4131" stroke="#000" stroke-width="3" fill="none" d="m378.4 599.74v15.72l100-45.72v-15.71l-100 45.71z"/>
      <g id="g4143" stroke="#000" stroke-width="1px" fill="none" transform="translate(-190 101.43)">
        <path id="path4135" d="m676.07 428.26v16.42l43.93-21.07 1.61-17.5-45.54 22.15z"/>
        <path id="path4137" d="m679.64 430.93l37.86-18.21-0.54 1.79-37.85 18.21 0.53-1.79z"/>
        <path id="path4139" d="m678.93 435.4l-0.18 5.71 18.57-8.75 0.18-6.43-18.57 9.47z"/>
        <path id="path4141" d="m701.79 423.79l-0.18 6.61 15.35-7.32 0.36-6.79-15.53 7.5z"/>
      </g>
      <path id="path4159" stroke="#000" stroke-width="4.1" fill="none" d="m369.62 572.95l-154.55-78.79v56.57l154.55 73.74v-51.52z"/>
      <g id="g4149" stroke="#000" stroke-width="1px" fill="none" transform="translate(-189.76 121.19)">
        <path id="path4151" d="m676.07 428.26v16.42l43.93-21.07 1.61-17.5-45.54 22.15z"/>
        <path id="path4153" d="m679.64 430.93l37.86-18.21-0.54 1.79-37.85 18.21 0.53-1.79z"/>
        <path id="path4155" d="m678.93 435.4l-0.18 5.71 18.57-8.75 0.18-6.43-18.57 9.47z"/>
        <path id="path4157" d="m701.79 423.79l-0.18 6.61 15.35-7.32 0.36-6.79-15.53 7.5z"/>
      </g>
      <path id="path6109" d="m214.29 493.08l155.71 80 165-72.15-156.43-55-164.28 47.15z" fill-rule="evenodd" stroke="#000" stroke-width="1px" fill="#fff"/>
      <path id="path8124" d="m364.12 540.57v-48.57l165.72-74.29-2.86 52.86-162.86 70z" fill-rule="evenodd" stroke="#000" stroke-width="1px" fill="#fff"/>
      <path id="path8126" stroke="#000" stroke-width="2.7" fill="none" d="m374.12 494.85v15.72l100-45.72v-15.71l-100 45.71z"/>
      <path id="path8128" stroke="#000" stroke-width="2.6" fill="none" d="m372.53 516.52v15.71l100-45.71v-15.71l-100 45.71z"/>
      <g id="g8130" stroke="#000" stroke-width="1px" fill="none" transform="translate(-195.88 18.206)">
        <path id="path8132" d="m676.07 428.26v16.42l43.93-21.07 1.61-17.5-45.54 22.15z"/>
        <path id="path8134" d="m679.64 430.93l37.86-18.21-0.54 1.79-37.85 18.21 0.53-1.79z"/>
        <path id="path8136" d="m678.93 435.4l-0.18 5.71 18.57-8.75 0.18-6.43-18.57 9.47z"/>
        <path id="path8138" d="m701.79 423.79l-0.18 6.61 15.35-7.32 0.36-6.79-15.53 7.5z"/>
      </g>
      <path id="path8140" d="m363.75 489.73l-154.55-78.79v56.57l154.55 73.74v-51.52z" fill-rule="evenodd" stroke="#000" stroke-width="3" fill="#fff"/>
      <g id="g8142" stroke="#000" stroke-width="1px" fill="none" transform="translate(-195.64 37.972)">
        <path id="path8144" d="m676.07 428.26v16.42l43.93-21.07 1.61-17.5-45.54 22.15z"/>
        <path id="path8146" d="m679.64 430.93l37.86-18.21-0.54 1.79-37.85 18.21 0.53-1.79z"/>
        <path id="path8148" d="m678.93 435.4l-0.18 5.71 18.57-8.75 0.18-6.43-18.57 9.47z"/>
        <path id="path8150" d="m701.79 423.79l-0.18 6.61 15.35-7.32 0.36-6.79-15.53 7.5z"/>
      </g>
      <path id="path8152" d="m208.41 409.85l155.71 80 165-72.14-156.42-55-164.29 47.14z" fill-rule="evenodd" stroke="#000" stroke-width="2.8" fill="#fff"/>
      <path id="path8156" d="m356.98 452v-48.57l165.72-74.29-2.86 52.86-162.86 70z" fill-rule="evenodd" stroke="#000" stroke-width="1px" fill="#fff"/>
      <path id="path8158" stroke="#000" stroke-width="3.3" fill="none" d="m366.98 406.28v15.72l100-45.72v-15.71l-100 45.71z"/>
      <path id="path8160" stroke="#000" stroke-width="2.8" fill="none" d="m365.38 427.95v15.71l100-45.71v-15.72l-100 45.72z"/>
      <g id="g8162" stroke="#000" stroke-width="1px" fill="none" transform="translate(-203.02 -70.365)">
        <path id="path8164" d="m676.07 428.26v16.42l43.93-21.07 1.61-17.5-45.54 22.15z"/>
        <path id="path8166" d="m679.64 430.93l37.86-18.21-0.54 1.79-37.85 18.21 0.53-1.79z"/>
        <path id="path8168" d="m678.93 435.4l-0.18 5.71 18.57-8.75 0.18-6.43-18.57 9.47z"/>
        <path id="path8170" d="m701.79 423.79l-0.18 6.61 15.35-7.32 0.36-6.79-15.53 7.5z"/>
      </g>
      <path id="path8172" d="m356.61 401.16l-154.56-78.79v56.57l154.56 73.74v-51.52z" fill-rule="evenodd" stroke="#000" stroke-width="1px" fill="#fff"/>
      <g id="g8174" stroke="#000" stroke-width="1px" fill="none" transform="translate(-202.78 -50.6)">
        <path id="path8176" d="m676.07 428.26v16.42l43.93-21.07 1.61-17.5-45.54 22.15z"/>
        <path id="path8178" d="m679.64 430.93l37.86-18.21-0.54 1.79-37.85 18.21 0.53-1.79z"/>
        <path id="path8180" d="m678.93 435.4l-0.18 5.71 18.57-8.75 0.18-6.43-18.57 9.47z"/>
        <path id="path8182" d="m701.79 423.79l-0.18 6.61 15.35-7.32 0.36-6.79-15.53 7.5z"/>
      </g>
      <path id="path8184" d="m201.27 321.28l155.71 80 165-72.14-156.43-55-164.28 47.14z" fill-rule="evenodd" stroke="#000" stroke-width="2.4" fill="#fff"/>
      <rect id="rect8085" fill-rule="evenodd" height="614.29" width="32.857" stroke="#000" y="155.22" x="251.43" stroke-width="4.2" fill="#fff"/>
      <path id="path9185" d="m303.73 374.46c0.34 3.87 0.72 7.73 1.05 11.6-0.19 3.33 0.64 6.5 1.25 9.71 0.12 2.3 1.95 3.35 3.07 4.99 1.29 1.57 3.03 2.56 4.6 3.79 1.6 1.27 3.4 2.21 5.09 3.35 2.4 0.67 4.83 1.29 7.27 1.89 2.32 0.67 4.29 2.02 6.38 3.11 1.55 1.35 3.33 2.35 4.99 3.55 1.49 1.44 3.22 2.54 4.86 3.79 1.59 1.28 3.39 2.23 5.08 3.37 1.57 0.77 3.13 1.58 4.67 2.41l-17.78 11.58c-1.57-0.83-3.18-1.6-4.72-2.48-1.73-1.17-3.53-2.23-5.18-3.52-1.59-1.23-3.24-2.39-4.79-3.68-1.67-1.21-3.39-2.33-5.02-3.6-1.95-0.87-3.8-2.02-5.92-2.52-2.59-0.66-5.28-1.16-7.66-2.39-1.74-1.16-3.54-2.21-5.2-3.49-1.59-1.3-3.35-2.4-4.72-3.98-1.44-1.91-3.19-3.41-3.58-5.97-0.75-3.38-1.55-6.73-1.34-10.25-0.33-3.89-0.57-7.79-1.29-11.64l18.89-9.62z" fill-rule="evenodd" filter="url(#filter9291)" stroke="#0000f4" stroke-width="1.5" fill="#0954ff"/>
      <path id="path9295" d="m306.58 463.03c-0.35 6.83 3.24 11.8 6.77 17.22 4.31 6 9.8 10.66 15.72 14.95 4.31 2.69 8.94 4.63 13.62 6.56 5.53 2.68 11.15 5.2 16.68 7.88 6.25 2.71 12.38 5.52 18.82 7.7 12.21 3.57 15.39-4.53-9.82 13.13-2.34-1.75-5.08-2.95-7.61-4.46-3.57-1.44-7.4-1.45-11.17-1.72-1.36 0.46-2.54-0.38-3.81-0.56l17.32-12.03c1.19 0.11 2.36 0.48 3.58 0.32 3.98 0.43 8.02 0.58 11.7 2.42 2.54 1.45 5.09 2.89 7.72 4.17-16.7 12.64-11.98 14.52-25.12 10.44-6.42-2.38-12.58-5.28-18.9-7.93-5.57-2.64-11.18-5.2-16.79-7.75-4.79-1.98-9.53-4.04-13.82-6.99-5.92-4.56-11.36-9.55-15.81-15.62-4.17-5.43-7.48-11.12-7.96-18.11l18.88-9.62z" fill-rule="evenodd" filter="url(#filter10131)" stroke="#0000f4" stroke-width="1.5" fill="#0954ff"/>
      <path id="path9297" d="m303.73 545.89c-0.14 4.43-0.1 8.86-0.1 13.29-0.1 3.08 0.99 5.87 1.76 8.77 0.79 1.87 2.01 3.5 3.07 5.23 2.14 2.71 4.98 4.65 7.65 6.78 3.5 2.68 7.64 3.98 11.8 5.22 3.22 0.9 6.44 1.57 9.74 2.14 4.31 0.46 8.6 1.05 12.93 1.42 2.16 0.16 4.32 0.19 6.48 0.26l-17.02 12.29c-2.19-0.1-4.38-0.14-6.56-0.35-4.36-0.45-8.71-1.06-13.08-1.45-3.3-0.73-6.58-1.49-9.82-2.45-4.31-1.46-8.59-2.98-12.21-5.84-2.91-2.23-5.88-4.44-8.22-7.28-1.2-1.88-2.46-3.72-3.33-5.78-0.82-3.12-1.96-6.13-1.88-9.44 0-4.4 0.04-8.79-0.1-13.19l18.89-9.62z" fill-rule="evenodd" filter="url(#filter10063)" stroke="#0000f4" stroke-width="1.5" fill="#0954ff"/>
      <path id="path9299" d="m238.2 509.7c0.86 3.87 1.98 7.67 3.04 11.49 0.5 3.5 0.96 6.99 1.59 10.48 0.1 2.78 1.38 5.15 2.35 7.67 0.54 2.1 2.41 2.9 3.74 4.3l-17.94 11.35c-1.63-1.67-3.51-2.95-4.29-5.31-1.01-2.64-2.36-5.16-2.51-8.06-0.61-3.49-1.08-6.96-1.49-10.47-0.99-3.74-1.97-7.5-3.07-11.22l18.58-10.23z" fill-rule="evenodd" filter="url(#filter9955)" stroke="#0000f4" stroke-width="1.5" fill="#0954ff"/>
      <path id="path9301" d="m231.07 427.06c1.24 4.2 2.47 8.4 3.7 12.6 0.84 3.09 1.7 6.18 2.6 9.25 0.66 2.75 2 5.25 3.12 7.82 0.3 1.91 2.42 2.2 3.45 3.14l-17.63 11.74c-1.49-1.41-3.5-2.22-4.24-4.42-1.15-2.68-2.5-5.3-3.22-8.14-0.9-3.07-1.82-6.14-2.54-9.26-1.17-4.23-2.21-8.51-3.84-12.59l18.6-10.14z" fill-rule="evenodd" filter="url(#filter9755)" stroke="#0000f4" stroke-width="1.5" fill="#0954ff"/>
      <path id="path9303" d="m229.63 343.98c1.03 4.17 2.09 8.32 3.16 12.47 0.93 2.89 1.9 5.77 2.92 8.62 0.59 2.33 1.77 4.42 2.83 6.56 0.68 1.57 1.98 2.71 2.97 4.06l-18.21 10.9c-1.1-1.42-2.39-2.72-3.14-4.38-1.13-2.31-2.38-4.57-3.05-7.08-0.98-2.84-1.92-5.72-2.77-8.61-1.02-4.12-2.03-8.25-3.29-12.3l18.58-10.24z" fill-rule="evenodd" filter="url(#filter9599)" stroke="#0000f4" stroke-width="1.5" fill="#0954ff"/>
      <path id="path9305" d="m301.01 334.2c4.76-4.36 10.1-7.96 15.57-11.36 13.25-7.83 26.54-15.59 40.43-22.21 4.59-2.75 9.21-4.96 14.32-6.49 4.05-0.9 8.19-0.8 12.31-0.88 3.56-0.27 6.87 0.81 10.22 1.73 2.26 0.96 3.76 2.77 5.49 4.39 2.27 2.12 5.05 3.5 7.74 4.99 2.81 1.58 5.75 2.94 8.66 4.31 2.45 0.91 4.89 1.92 7.34 2.81 2.59 1.39 5.43 2.09 8.22 2.92 2.94 1.13 5.89 2.18 8.85 3.23l-17.51 11.76c-2.91-1.04-5.8-2.13-8.73-3.11-2.89-0.9-5.85-1.63-8.51-3.13-2.48-0.86-5.02-1.64-7.35-2.88-2.9-1.41-5.83-2.78-8.63-4.39-2.86-1.66-5.86-3.16-8.21-5.52-1.57-1.23-2.82-2.95-4.88-3.5-3.2-0.63-6.35-1.63-9.7-1.23-4.01 0.17-8.05 0.14-11.94 1.3-4.84 1.82-9.33 4.21-13.89 6.65-7.39 3.53-35.32 18.76-5.03 1.85-5.19 3.35-10.77 6.33-15.08 10.86l-19.69 7.9z" fill-rule="evenodd" filter="url(#filter9395)" stroke="#0000f4" stroke-width="1.5" fill="#0954ff"/>
      <path id="path10135" d="m528.01 521.6c0.3 3.99-0.73 7.72-1.67 11.53-0.78 3.67-3.14 5.74-5.65 8.21-7.44 6.62-16.74 10.53-25.36 15.42-2.8 1.27-5.66 2.35-8.55 3.41-2.91 0.9-5.76 1.95-8.65 2.91-2.89 0.84-5.71 1.9-8.58 2.85-2.76 1.24-5.6 2.25-8.36 3.5-1.99 0.63-3.89 1.43-5.85 2.15l16.63-13.01c1.93-0.74 3.88-1.44 5.76-2.31 2.83-1.09 5.67-2.2 8.5-3.3 2.86-0.95 5.7-1.97 8.58-2.85 2.87-0.97 5.73-1.98 8.61-2.95 2.84-1.12 5.68-2.22 8.39-3.65 0.43-0.2 0.86-0.41 1.29-0.62-5.57 3.24-11.15 6.49-16.72 9.74 1.62-1.06 3.41-1.94 4.69-3.46 2.58-2.05 5.12-3.6 6.29-6.91 0.97-3.65 2.23-7.21 1.77-11.03l18.88-9.63z" fill-rule="evenodd" filter="url(#filter10201)" stroke="#0000f4" stroke-width="1.5" fill="#0954ff"/>
      <path id="path10205" d="m520.97 437.19c0.62 4.43 0.8 8.88 0.8 13.34-0.28 3.72-2.46 6.19-4.56 8.99-59.88 35.66 33.03-18.12-25.84 15.47-2.96 1.14-5.89 2.29-8.87 3.33-3.19 1.15-6.41 2.19-9.64 3.23-2.32 0.43-4.57 1.08-6.86 1.62l16.74-12.8c2.27-0.55 4.55-1.05 6.78-1.75 3.22-1.05 6.45-2.1 9.6-3.36 2.93-1.08 5.94-2.01 8.68-3.54-41.78 24.57 29.06-16.75-10.11 5.92 2.16-2.38 4.6-4.44 5.25-7.78 0.21-4.26 0.18-8.54-0.71-12.79l18.74-9.88z" fill-rule="evenodd" filter="url(#filter10403)" stroke="#0000f4" stroke-width="1.5" fill="#0954ff"/>
      <path id="path10407" d="m510.87 350.18c0.4 4.02-0.79 7.65-1.88 11.41-1.2 2.76-3.32 4.82-5.19 7.09-7.75 6.38-16.97 10.81-26.08 14.87-3.22 1.34-6.52 2.18-9.88 3.01-3.28 0.8-6.45 1.74-9.63 2.86-3.48 0.88-6.82 2.18-10.21 3.34-8.06 2.58-20.6 10.46 10.32-7.05l-19.73 7.59c9.45-5.38 16.41-10.36 26.04-13.46 3.38-1.19 6.78-2.34 10.21-3.4 3.24-0.95 6.48-1.92 9.79-2.62 3.23-1.04 6.52-1.94 9.6-3.4 15.52-7.36-20.83 13.8-10.01 6.28 2.02-1.99 4.15-3.89 5.53-6.44 1.35-3.42 2.92-6.56 2.24-10.46l18.88-9.62z" fill-rule="evenodd" filter="url(#filter10481)" stroke="#0000f4" stroke-width="1.5" fill="#0954ff"/>
      <path id="path10485" d="m270.87 158.75c-0.11 3.77 0.51 7.54 0.93 11.29 0.17 4.23 0.77 8.42 1.21 12.63 0.43 5.55 0.48 11.13 0.56 16.7 0.1 5.41 0.04 10.83-0.01 16.24-0.08 7.29-0.05 14.58-0.04 21.87 0.04 6.23 0.05 12.46 0.05 18.69 0.05 5.78-0.01 11.57 0.01 17.35 0 5.67 0.01 11.33 0 17 0.34 6.33-0.76 12.55-1.68 18.78-0.83 5.71-0.96 11.48-1.12 17.24-0.1 7.06-0.16 14.13-0.21 21.19-0.02 7.96 0.05 15.92 0.1 23.88 0.07 6.51 0.01 13.02 0 19.53 0.04 6.67 0.03 13.33-0.04 19.99-0.16 7.56-0.09 15.1 0.46 22.64 0.58 5.91 0.76 11.86 0.96 17.79 0.8 6.28 0.99 12.6 1.14 18.92 0.05 8.53 0.78 17.03 1.36 25.54 0.16 11.62 0.33 23.25 0.68 34.87 0.58 16.48 1.26 32.96 1.68 49.45 0.34 11.97 0.65 23.94 0.83 35.92 0.05 7.48 0.07 14.95 0.08 22.43-0.01 5.9 0.05 11.81 0.08 17.71 0.38 4.2-0.17 8.3-0.63 12.42-0.94 3.51-1.8 7.05-2.66 10.57-1.4 3.98-1.88 8.17-2.51 12.31-1.39 6.36-2.56 12.76-3.8 19.15-0.78 4.07-1.11 8.2-1.49 12.32l-18.7 9.32c0.42-4.21 0.8-8.42 1.59-12.58 1.18-6.36 2.25-12.74 3.56-19.07 0.63-4.18 1.05-8.44 2.3-12.5 0.93-3.48 1.85-6.93 2.68-10.45 0.7-3.98 1.44-7.84 1-11.99 0.04-5.93 0.1-11.86 0.09-17.79 0.03-7.5 0.07-15 0.09-22.51 0.09-12.09 0.16-24.18-0.06-36.27-0.4-16.45-1.26-32.89-1.86-49.33-0.43-11.49-1.02-22.97-1.39-34.46-0.39-8.55-0.96-17.1-1.22-25.66-0.25-6.29-0.71-12.55-1.41-18.8-0.14-5.91-0.31-11.82-0.9-17.7-0.46-7.62-0.31-15.23-0.35-22.87-0.07-6.65-0.08-13.3-0.05-19.95 0-6.51-0.06-13.02 0-19.53 0.05-7.99 0.11-15.98 0.08-23.97-0.06-7.02-0.18-14.05-0.11-21.08 0.15-5.84 0.27-11.7 1.08-17.49 0.88-6.14 2.19-12.25 1.76-18.49-0.01-5.67 0-11.34 0.01-17.01 0.01-5.79-0.05-11.58 0-17.36 0.01-6.25 0.01-12.5 0.06-18.74 0-7.28 0.04-14.56-0.03-21.84-0.05-5.39-0.08-10.79-0.05-16.19-0.06-5.5-0.08-11.01-0.56-16.5-0.46-4.2-1.14-8.37-1.29-12.6-0.41-3.79-0.94-7.58-1.14-11.39l18.88-9.62z" fill-rule="evenodd" filter="url(#filter10535)" stroke="#0000f4" stroke-width="1.5" fill="#0954ff"/>
      <path id="path10539" d="m419.44 135.89c-0.21 5.94-0.17 11.89-0.2 17.83 0.03 6.85 0 13.71-0.01 20.56-0.12 7.13-0.01 14.25 0.39 21.37 0.54 6.42 0.78 12.87 0.98 19.31 0.1 6.4 0.11 12.79 0.09 19.19-0.03 5.96 0.03 11.91 0.07 17.87-0.23 2.67 0.22 5.31 0.4 7.95l-18.65 9.83c-0.2-2.76-0.72-5.49-0.41-8.28 0.04-5.98 0.11-11.96 0.08-17.94-0.02-6.37 0.01-12.75-0.11-19.12-0.15-6.43-0.34-12.86-0.87-19.27-0.45-7.16-0.53-14.32-0.43-21.51-0.01-6.85-0.04-13.7-0.01-20.55-0.03-5.87 0.01-11.75-0.2-17.62l18.88-9.62z" fill-rule="evenodd" filter="url(#filter10733)" stroke="#0000f4" stroke-width="1.5" fill="#0954ff"/>
      <path id="path10737" d="m423.73 615.89c-0.14 4.43-0.1 8.86-0.1 13.29-0.06 5.62-0.05 11.24-0.05 16.86-0.04 5.52 0 11.05 0.05 16.57-0.03 5.11-0.02 10.21-0.03 15.32 0.01 4.68 0.03 9.37 0.04 14.06 0.15 4.12-0.07 8.24-0.22 12.34-1.14 3.29-1.6 6.68-2.11 10.08 1.55 6.24 6.43 10.78 10.55 15.47 5.54 6.9 12.43 12.13 19.68 17.06 4.06 2.33 8.19 4.57 12.26 6.88 2.37 1.64 4.95 2.85 7.5 4.17 4.75 2.14 9.78 3.54 14.7 5.22 6.34 2.22 12.6 4.61 18.99 6.69 5.73 1.6 11.29 3.75 16.94 5.59 3.42 1.05 6.57 2.66 9.73 4.27 1.92 1.29 3.83 2.57 5.77 3.84 0.3 0.12 0.6 0.25 0.9 0.37l-17.71 11.68c-0.35-0.19-0.69-0.38-1.03-0.57-1.89-1.29-3.77-2.58-5.68-3.82-3.06-1.48-6.13-2.95-9.36-4.03-5.55-1.91-11.01-4.05-16.63-5.72-6.44-2.12-12.82-4.37-19.21-6.61-5.01-1.65-10.1-3.12-14.93-5.27-2.59-1.34-5.23-2.58-7.66-4.22-3.97-2.47-7.98-4.89-11.96-7.34-7.24-5.18-14.19-10.59-19.93-17.5-4.54-5.06-9.65-9.96-11.7-16.62 0.33-3.54 0.39-7.08 1.94-10.41 0.32-3.95 0.71-7.98 0.46-12.02 0.01-4.7 0.03-9.4 0.04-14.1-0.01-5.1 0-10.19-0.03-15.29 0.05-5.54 0.09-11.08 0.05-16.62 0-5.61 0.01-11.21-0.05-16.81 0-4.4 0.04-8.79-0.1-13.19l18.89-9.62z" fill-rule="evenodd" filter="url(#filter10771)" stroke="#0000f4" stroke-width="1.5" fill="#0954ff"/>
      <path id="path10775" d="m188.58 742.72c10.82 6.57 22.53 11.47 34.11 16.52 21.8 9.31 43.62 18.52 65.32 28.07 20.48 9.4 40.44 19.9 60.57 30.02 12.09 6.22 23.94 12.97 36.34 18.55 4.17 2.26 8.39 4.22 12.8 5.93 0.46 0.16 0.92 0.32 1.39 0.49l-17.53 11.8c-0.47-0.18-0.93-0.36-1.4-0.54-4.26-1.9-8.38-3.97-12.41-6.35-12-6.07-23.64-12.86-35.53-19.14-19.91-10.22-39.49-21.12-59.9-30.34-21.88-9.53-43.91-18.6-66-27.6-11.87-5.05-23.76-10.06-35.38-15.67l17.62-11.74z" fill-rule="evenodd" filter="url(#filter10817)" stroke="#0000f4" stroke-width="1.5" fill="#0954ff"/>
    </g>
  </g>
  <metadata>
    <rdf:RDF>
      <cc:Work>
        <dc:format>image/svg+xml</dc:format>
        <dc:type rdf:resource="http://purl.org/dc/dcmitype/StillImage"/>
        <cc:license rdf:resource="http://creativecommons.org/licenses/publicdomain/"/>
        <dc:publisher>
          <cc:Agent rdf:about="http://openclipart.org/">
            <dc:title>Openclipart</dc:title>
          </cc:Agent>
        </dc:publisher>
        <dc:title>Server's Frame</dc:title>
        <dc:date>2008-11-17T12:04:02</dc:date>
        <dc:description>telecommunication frame with three servers</dc:description>
        <dc:source>http://openclipart.org/detail/20217/servers-frame-by-verses</dc:source>
        <dc:creator>
          <cc:Agent>
            <dc:title>verses</dc:title>
          </cc:Agent>
        </dc:creator>
        <dc:subject>
          <rdf:Bag>
            <rdf:li>clip art</rdf:li>
            <rdf:li>clipart</rdf:li>
            <rdf:li>frame</rdf:li>
            <rdf:li>image</rdf:li>
            <rdf:li>media</rdf:li>
            <rdf:li>public domain</rdf:li>
            <rdf:li>server</rdf:li>
            <rdf:li>svg</rdf:li>
            <rdf:li>telecom</rdf:li>
          </rdf:Bag>
        </dc:subject>
      </cc:Work>
      <cc:License rdf:about="http://creativecommons.org/licenses/publicdomain/">
        <cc:permits rdf:resource="http://creativecommons.org/ns#Reproduction"/>
        <cc:permits rdf:resource="http://creativecommons.org/ns#Distribution"/>
        <cc:permits rdf:resource="http://creativecommons.org/ns#DerivativeWorks"/>
      </cc:License>
    </rdf:RDF>
  </metadata>
</svg>
